<?xml version="1.0" encoding="UTF-8" standalone="no"?>
<!-- Created with Inkscape (http://www.inkscape.org/) -->

<svg
   xmlns:dc="http://purl.org/dc/elements/1.1/"
   xmlns:cc="http://creativecommons.org/ns#"
   xmlns:rdf="http://www.w3.org/1999/02/22-rdf-syntax-ns#"
   xmlns:svg="http://www.w3.org/2000/svg"
   xmlns="http://www.w3.org/2000/svg"
   xmlns:sodipodi="http://sodipodi.sourceforge.net/DTD/sodipodi-0.dtd"
   xmlns:inkscape="http://www.inkscape.org/namespaces/inkscape"
   width="240.78999"
   height="216.98"
   id="svg2"
   version="1.1"
   inkscape:version="0.48.1 r9760"
   sodipodi:docname="Documento nuevo 1">
  <defs
     id="defs4" />
  <sodipodi:namedview
     id="base"
     pagecolor="#ffffff"
     bordercolor="#666666"
     borderopacity="1.0"
     inkscape:pageopacity="0.0"
     inkscape:pageshadow="2"
     inkscape:zoom="0.98994949"
     inkscape:cx="153.53196"
     inkscape:cy="3.0072985"
     inkscape:document-units="px"
     inkscape:current-layer="layer1"
     showgrid="false"
     fit-margin-top="0"
     fit-margin-left="0"
     fit-margin-right="0"
     fit-margin-bottom="0"
     inkscape:window-width="1280"
     inkscape:window-height="712"
     inkscape:window-x="0"
     inkscape:window-y="0"
     inkscape:window-maximized="0" />
  <metadata
     id="metadata7">
    <rdf:RDF>
      <cc:Work
         rdf:about="">
        <dc:format>image/svg+xml</dc:format>
        <dc:type
           rdf:resource="http://purl.org/dc/dcmitype/StillImage" />
        <dc:title></dc:title>
      </cc:Work>
    </rdf:RDF>
  </metadata>
  <g
     inkscape:label="Capa 1"
     inkscape:groupmode="layer"
     id="layer1"
     transform="translate(-196.46804,-75.952872)">
    <path
       style="fill:#000000"
       d="m 313.0786,271.89734 c 0.46583,-6.13525 2.10022,-12.93547 5.2434,-21.81625 5.3863,-15.2185 15.19508,-38.31602 20.06318,-47.24441 1.89849,-3.48196 3.29371,-7.09389 3.10048,-8.02652 -0.20539,-0.99127 -1.60203,0.51979 -3.36203,3.63747 -13.20952,23.39944 -18.72565,30.91733 -22.33402,30.43885 -3.78179,-0.50148 -3.67423,-4.29623 0.21301,-7.51551 3.49495,-2.8944 6.87543,-7.85295 18.14285,-26.61219 3.6922,-6.14717 8.6181,-12.93445 10.94645,-15.08284 2.32834,-2.14838 5.14292,-5.23936 6.2546,-6.86885 4.28686,-6.28361 9.86988,-2.64345 13.63995,8.89333 1.38184,4.22855 3.06016,7.4607 3.76124,7.24349 0.6963,-0.21573 1.91517,-3.66152 2.7086,-7.65731 0.79342,-3.99579 2.43231,-9.8234 3.64197,-12.95023 l 2.19937,-5.68517 -5.3269,0.42453 c -6.71178,0.5349 -11.63959,-2.1298 -14.57637,-7.88215 l -2.1094,-4.13174 -1.85465,2.65787 c -6.28468,9.00645 -14.57453,14.2696 -16.91992,10.7423 -0.3924,-0.59013 -3.60891,1.8339 -7.1478,5.38673 -3.53889,3.55285 -7.29095,6.46069 -8.3379,6.46185 -1.04696,0.001 -5.4208,3.33501 -9.71963,7.40854 -8.04453,7.62289 -13.95616,10.3283 -19.74092,9.03425 -3.62738,-0.81144 -8.73694,-5.44731 -11.59437,-10.51951 -4.42842,-7.86082 -2.54458,-26.11093 4.42053,-42.8245 0.61297,-1.47092 0.18513,-1.88173 -1.94628,-1.86887 -4.93427,0.0299 -5.39367,1.07553 -5.44433,12.39309 -0.0537,11.98519 -3.16476,27.43131 -7.08742,35.18787 -2.38678,4.71956 -10.9712,13.81128 -13.04063,13.81128 -2.73494,0 -7.83956,-3.53618 -9.98616,-6.9178 -2.74868,-4.33013 -5.21221,-11.73585 -3.5949,-10.80678 1.40303,0.80597 1.35468,-0.23618 -0.13065,-2.81582 -0.74451,-1.29301 -0.77415,-2.08387 -0.0781,-2.08387 0.61697,0 1.49315,-1.08764 1.94708,-2.41696 0.70951,-2.0778 1.41174,-1.29317 5.00424,5.59132 2.2984,4.40456 5.31508,8.67946 6.7037,9.4998 2.3012,1.35941 2.70438,1.23675 4.55271,-1.38522 4.31223,-6.11717 7.63687,-19.85825 8.2704,-34.18255 0.65952,-14.91202 0.61899,-15.00032 -5.66531,-12.34089 -4.07979,1.72653 -7.6472,5.98884 -13.71024,16.38094 -2.76564,4.74033 -10.49478,16.86047 -17.17588,26.93365 -6.6811,10.07319 -13.15265,20.49651 -14.38124,23.16294 -2.18701,4.74653 -7.10798,9.5804 -9.83141,9.65738 -2.70629,0.0765 -3.02375,-4.42022 -0.51981,-7.36281 1.98457,-2.33224 11.69673,-16.48601 29.66649,-43.23372 4.78362,-7.12034 9.89452,-15.22643 9.89452,-15.6931 0,-0.2569 -1.69517,-0.47087 -3.76705,-0.47549 -2.84193,-0.006 -4.08413,-0.64426 -5.05822,-2.59759 -1.57634,-3.161 -0.83294,-4.3972 4.28226,-7.12094 14.08415,-7.49958 21.56114,-9.8921 31.99594,-10.23823 5.21786,-0.17307 10.43377,-0.60875 11.5909,-0.96817 1.35589,-0.42115 3.20518,-3.61483 5.20154,-8.98296 3.3741,-9.07281 9.15799,-23.823381 12.34527,-31.483951 2.30048,-5.529166 5.53621,-6.950121 6.62708,-2.910256 0.49141,1.819816 -0.5244,4.906776 -3.30282,10.037026 -2.20686,4.074911 -4.56241,9.105741 -5.23456,11.179631 -0.67215,2.07389 -2.55759,7.0652 -4.18987,11.09181 -4.10723,10.13198 -4.02969,10.45193 2.53791,10.47161 7.38481,0.0221 9.97474,1.51894 5.73501,3.31445 -1.71988,0.72836 -3.12705,1.66376 -3.12705,2.07864 0,0.4149 -2.67869,1.04923 -5.95264,1.40964 -3.27395,0.36041 -6.11045,0.80196 -6.30332,0.98123 -1.02251,0.95039 -6.47573,20.43846 -7.01199,25.0586 -1.11148,9.57605 3.80132,19.25468 11.22416,22.11248 2.83289,1.09066 3.87555,0.95618 7.12982,-0.91965 2.09644,-1.20842 5.59653,-3.91381 7.778,-6.01196 3.58095,-3.44418 3.83434,-4.08406 2.60796,-6.58584 -2.74623,-5.60225 -0.80939,-25.84653 3.6053,-37.68338 2.61705,-7.01695 8.29817,-15.62151 10.31402,-15.62151 2.41782,0 5.48497,4.56388 6.24878,9.29813 0.77806,4.82255 -0.91686,23.89118 -2.47725,27.8703 -0.55703,1.42051 -0.45545,1.7876 0.29812,1.07735 1.51899,-1.43164 3.60969,-11.18988 4.32662,-20.19428 0.65941,-8.28185 2.27179,-11.8782 5.09174,-11.35691 1.71917,0.3178 1.95021,2.19605 1.95021,15.85395 0,17.05517 1.04763,19.5208 5.13229,12.07888 3.21461,-5.85678 7.6227,-18.6303 9.30541,-26.96475 1.50623,-7.46032 3.25441,-10.89471 5.54566,-10.89471 1.84881,0 1.83794,-0.12553 1.50028,17.32872 -0.25321,13.08793 -0.0238,15.10801 2.17047,19.10566 4.1048,7.47861 12.25188,7.2248 22.06934,-0.68753 l 5.1553,-4.15489 -2.11628,-5.15059 c -4.10778,-9.99748 0.50709,-26.66774 8.61484,-31.11934 3.27123,-1.79609 3.82213,-1.82248 6.31757,-0.30271 1.79101,1.09075 3.0071,3.16829 3.52619,6.02401 0.90659,4.98769 -1.2345,18.55557 -3.60968,22.87412 -2.15949,3.92636 -2.09016,4.09354 1.69757,4.09354 1.82559,0 4.23413,-0.96184 5.39556,-2.15469 2.2672,-2.32854 4.66075,-2.78385 5.78065,-1.09961 2.37778,3.576 -8.49146,10.96182 -16.45489,11.18134 -6.12484,0.16884 -6.53648,0.88845 -4.61225,8.06284 1.21967,4.54751 -2.82109,12.7299 -10.02899,20.30827 -9.94312,10.45421 -10.03836,10.6405 -10.0197,19.5998 0.0169,8.13433 1.53927,13.00949 4.32951,13.86491 1.09966,0.33713 1.44886,-2.38407 1.44886,-11.29048 0,-12.37629 0.75562,-14.57016 5.46575,-15.86924 2.14732,-0.59224 2.90686,-0.0405 4.63636,3.36799 2.76842,5.45599 7.36149,7.06109 11.03448,3.85614 1.44362,-1.25966 4.97192,-3.27935 7.84067,-4.4882 13.69944,-5.77272 18.85117,0.9301 11.74816,15.28531 -3.67273,7.42261 -8.34273,12.09854 -13.19702,13.21378 -3.97711,0.91372 -4.42969,-1.789 -0.77519,-4.62922 6.2463,-4.85453 9.64119,-17.49632 4.69855,-17.49632 -1.18903,0 -3.50571,0.9825 -5.14816,2.18336 -3.91762,2.86426 -10.44191,5.35806 -14.01781,5.35806 -2.88254,0 -3.27721,0.58415 -4.73127,7.00275 -0.40269,1.77762 -2.23133,4.8706 -4.06363,6.87329 -2.59616,2.8376 -4.27352,3.66983 -7.59988,3.77071 -6.54718,0.19857 -9.09801,-3.63972 -9.62802,-14.48745 -0.46157,-9.44728 -1.78923,-11.16315 -2.88547,-3.72922 -0.70502,4.7809 -6.17486,16.8173 -9.0941,20.01159 -8.69169,9.51063 -16.76412,5.52407 -13.66266,-6.74731 0.79117,-3.13038 2.94892,-8.81992 4.79499,-12.64341 1.84608,-3.82351 3.06338,-7.66182 2.70511,-8.52959 -0.85017,-2.05924 -2.0935,-0.68859 -4.38853,4.83793 -1.01398,2.44166 -3.39652,7.53212 -5.29454,11.31213 -11.8508,23.60144 -21.0942,50.02462 -21.59821,61.74063 -0.32718,7.60583 -1.95383,10.31156 -6.19916,10.31156 -1.39804,0 -1.57258,-1.53669 -1.01249,-8.9137 z m 43.11171,-60.30579 c 3.2195,-6.62714 4.16102,-12.81077 2.05033,-13.46593 -1.83095,-0.56833 -5.4739,7.20241 -6.56539,14.0046 -1.11575,6.95334 0.99792,6.70116 4.51506,-0.53867 z m 31.34146,-42.58229 c 1.91362,-3.64826 1.95643,-11.70199 0.0604,-11.36129 -1.69833,0.30517 -9.01094,19.16207 -7.84957,20.24154 0.87725,0.81536 5.42032,-4.36407 7.78919,-8.88025 z m -65.7488,-6.97563 c 0.0828,-0.74067 1.22942,-4.98272 2.54815,-9.42677 2.72434,-9.18086 4.50506,-28.011 2.64895,-28.011 -0.64617,0 -2.33482,2.54523 -3.75257,5.65606 -3.83395,8.41247 -5.63645,33.1284 -2.41601,33.1284 0.45157,0 0.88873,-0.60601 0.97148,-1.34669 z m 79.07089,-32.85905 c 2.4207,-8.5366 2.72336,-14.27484 0.75293,-14.27484 -0.93614,0 -2.27469,1.52676 -2.97455,3.3928 -1.51782,4.04695 -1.70532,15.99943 -0.25099,15.99943 0.56181,0 1.67449,-2.30282 2.47261,-5.11739 z"
       id="path3082"
       inkscape:connector-curvature="0" />
  </g>
</svg>
